<svg xmlns="http://www.w3.org/2000/svg" xmlns:xlink="http://www.w3.org/1999/xlink" version="1.1" x="0px" y="0px" viewBox="0 0 64 64" enable-background="new 0 0 64 64" xml:space="preserve"><g><g><path d="M33,12H17c-1.104,0-2,0.896-2,2v12c0,1.104,0.896,2,2,2h16c1.104,0,2-0.896,2-2V14C35,12.896,34.104,12,33,12z M31,24H19    v-8h12V24z"/><path d="M47,14c-1.104,0-2,0.896-2,2s0.896,2,2,2c2.594,0,4,0.956,4,6v18c0,1.103-0.897,2-2,2s-2-0.897-2-2c0-3.309-2.691-6-6-6V8    c0-1.104-0.896-2-2-2H11C9.896,6,9,6.896,9,8v48c0,1.104,0.896,2,2,2h28c1.104,0,2-0.896,2-2V40c1.103,0,2,0.897,2,2    c0,3.309,2.691,6,6,6s6-2.691,6-6V24C55,21.527,55,14,47,14z M37,54H13V10h24V54z"/></g></g></svg>
