<svg xmlns="http://www.w3.org/2000/svg" xmlns:xlink="http://www.w3.org/1999/xlink" version="1.1" x="0px" y="0px" viewBox="0 0 100 100" enable-background="new 0 0 100 100" xml:space="preserve"><path d="M93.756,70.24c0.277,0,0.5-0.225,0.5-0.5v-8.598c0-0.275-0.225-0.5-0.5-0.5H76.723c-0.158,0-0.307,0.076-0.402,0.203  l-2.717,3.676H50.189c-0.002,0-0.003-0.002-0.005-0.002H26.398l-2.716-3.674c-0.094-0.129-0.243-0.203-0.402-0.203H6.245  c-0.276,0-0.5,0.223-0.5,0.5v8.598c0,0.275,0.224,0.5,0.5,0.5h11.782c0.089,0,0.175-0.023,0.252-0.068l8.002-4.652h23.532  c0.002,0,0.003,0.002,0.005,0.002h23.902l8.002,4.652c0.076,0.043,0.164,0.066,0.252,0.066H93.756z M17.892,69.24H6.745v-7.598  h16.283l2.384,3.227L17.892,69.24z M74.59,64.869l2.385-3.227h16.281v7.598H82.109L74.59,64.869z"/><path d="M78.486,71.711l-7.41-4.16c-0.074-0.041-0.158-0.064-0.244-0.064H50.184h-0.366H29.169c-0.086,0-0.17,0.023-0.245,0.064  l-7.41,4.16c-0.157,0.088-0.255,0.254-0.255,0.436v4.119c0,0.275,0.224,0.5,0.5,0.5h28.059h0.366h28.058c0.275,0,0.5-0.223,0.5-0.5  v-4.119C78.742,71.965,78.643,71.799,78.486,71.711z M29.3,68.486h20.518h0.366h20.517l7.041,3.953v0.143H50.184h-0.366H22.259  v-0.143L29.3,68.486z M50.184,75.766h-0.366H22.259v-2.184h27.559h0.366h27.558v2.184H50.184z"/><path d="M93.756,72.582H82.293c-0.197,0-0.375,0.115-0.457,0.297c-0.08,0.18-0.047,0.391,0.086,0.537l2.867,3.186  c0.096,0.104,0.229,0.164,0.371,0.164h8.596c0.277,0,0.5-0.223,0.5-0.5v-3.184C94.256,72.805,94.033,72.582,93.756,72.582z   M93.256,75.766h-7.873l-1.967-2.184h9.84V75.766z"/><path d="M90.969,36.25c0.943-1.105,2.432-1.458,3.883-1.792c1.742-0.401,3.543-0.815,3.543-2.769c0-3.108-2.51-5.116-6.393-5.116  c-2.646,0-3.615,3.739-3.967,6.197c-1.578-3.701-5.352-11.952-9.344-16.413c-0.043-0.089-0.113-0.158-0.197-0.209  c-1.557-1.688-3.143-2.786-4.641-2.786H26.145c-1.498,0-3.084,1.099-4.643,2.788c-0.08,0.05-0.146,0.117-0.188,0.201  c-3.994,4.458-7.768,12.709-9.349,16.414c-0.351-2.458-1.32-6.194-3.966-6.194c-3.883,0-6.392,2.008-6.392,5.116  c0,1.954,1.801,2.368,3.543,2.769c1.451,0.333,2.939,0.688,3.883,1.792c-7.311,6.416-7.427,14.034-7.427,14.386v21.172  c0,1.559,0.323,2.809,0.807,3.82v6.053c0,0.037,0.004,0.07,0.011,0.104c0.01,0.049,1.088,4.855,6.209,4.855h8.619  c0.043-0.002,4.299-0.234,4.299-4.959v-2.049h56.898v2.049c0,4.725,4.256,4.957,4.318,4.959h8.6c5.121,0,6.199-4.805,6.211-4.855  c0.008-0.033,0.012-0.068,0.012-0.104v-6.059c0.482-1.012,0.803-2.26,0.803-3.813V50.635C98.393,50.283,98.277,42.666,90.969,36.25z   M95.479,43.714c-0.086-0.063-0.184-0.104-0.291-0.104h-0.002l-14.982,0.042l8.188-8.178C92.021,38.082,94.188,41.073,95.479,43.714  z M94.688,45.361H78.742V45.11l0.457-0.457l15.488-0.044V45.361z M78.742,46.361h15.945v1.818l-2.146,3.036h-10.09  c-3.18,0-3.695-2.838-3.709-2.877V46.361z M92.002,27.575c2.607,0,5.393,1.081,5.393,4.116c0,1.104-1,1.387-2.768,1.794  c-1.467,0.337-3.252,0.76-4.416,2.116c-0.43-0.349-0.877-0.693-1.354-1.031C88.988,32.397,89.75,27.575,92.002,27.575z   M50.184,34.261h-0.368H21.759c-1.226,0-2.572-0.633-3.788-1.433h31.847h0.366h31.843c-1.215,0.8-2.561,1.433-3.785,1.433H50.184z   M83.393,31.828H50.184h-0.366H16.607c-1.033-0.83-1.85-1.644-2.221-2.031c2.044-4.363,4.863-9.611,7.603-12.729h27.83h0.366h27.828  c2.74,3.117,5.559,8.365,7.604,12.728C85.244,30.183,84.428,30.997,83.393,31.828z M26.146,14.362h47.709  c0.996,0,2.084,0.645,3.201,1.707H50.184h-0.366H22.945C24.063,15.006,25.15,14.362,26.146,14.362z M5.374,33.483  c-1.768-0.406-2.768-0.69-2.768-1.794c0-3.034,2.785-4.116,5.392-4.116c2.252,0,3.015,4.823,3.146,6.995  c-0.477,0.338-0.924,0.683-1.354,1.031C8.626,34.244,6.841,33.821,5.374,33.483z M11.613,35.473l8.185,8.176L4.815,43.607  c-0.113,0.018-0.213,0.051-0.299,0.112C5.805,41.079,7.974,38.086,11.613,35.473z M21.266,48.257  c-0.019,0.121-0.516,2.958-3.716,2.958H7.461l-2.147-3.037v-1.817h15.949L21.266,48.257z M5.314,45.361v-0.752l15.488,0.044  l0.458,0.457l0,0.251H5.314z M20.551,81.68c0,3.752-3.206,3.953-3.32,3.959H8.633c-4.096,0-5.103-3.537-5.22-4.016v-4.438  c1.641,1.934,3.81,2.426,3.845,2.434c0.035,0.008,0.069,0.012,0.104,0.012h13.189V81.68z M96.59,81.623  c-0.119,0.479-1.125,4.016-5.223,4.016h-8.576c-0.137-0.006-3.342-0.207-3.342-3.959v-2.049h13.189c0.035,0,0.07-0.004,0.104-0.01  c0.035-0.008,2.207-0.5,3.848-2.438V81.623z M97.395,71.809c0,5.471-4.279,6.691-4.813,6.822H7.421  c-0.491-0.125-4.814-1.383-4.814-6.822V50.635c0-0.051,0.034-2.896,1.707-6.515v4.217c0,0.104,0.032,0.205,0.092,0.289l2.388,3.378  c0.094,0.131,0.246,0.211,0.408,0.211H17.55c4.04,0,4.697-3.759,4.71-3.88V44.9c0-0.133-0.052-0.26-0.146-0.354l-9.867-9.856  c0.432-1.076,1.006-2.424,1.688-3.919c1.29,1.303,4.758,4.49,7.824,4.49h28.057h0.368h28.058c3.064,0,6.533-3.188,7.824-4.491  c0.682,1.495,1.258,2.844,1.689,3.92l-9.867,9.859c-0.094,0.094-0.146,0.221-0.146,0.354l0.002,0.948  c0,0.003-0.002,0.006-0.002,0.01s0.002,0.007,0.002,0.011l0.006,2.546c0.006,0.037,0.66,3.797,4.701,3.797h10.348  c0.162,0,0.316-0.08,0.408-0.209l2.389-3.377c0.061-0.085,0.092-0.185,0.092-0.289v-4.208c1.666,3.612,1.707,6.453,1.707,6.503  V71.809z"/><path d="M35.971,58.299h13.847h0.366h13.847c4.795,0,7.922-1.145,9.564-3.498c1.396-2.004,1.396-4.424,1.396-6.463  c0-4.098-3.084-4.716-3.205-4.73H49.818c0,0,0,0,0,0l-21.694,0.008c-0.031,0.006-3.114,0.624-3.114,4.816  c-0.001,1.944-0.001,4.365,1.396,6.369C28.047,57.152,31.176,58.299,35.971,58.299z M28.215,44.608h21.97h0l21.51-0.008  c0.023,0.004,2.297,0.463,2.297,3.832c0,1.804,0,4.05-1.219,5.796c-1.439,2.066-4.301,3.07-8.742,3.07H50.185h-0.367H35.972  c-4.444,0-7.305-1.004-8.745-3.07c-1.218-1.746-1.217-3.992-1.217-5.891C26.01,45.097,28.215,44.618,28.215,44.608z"/><path d="M17.706,72.582H6.245c-0.276,0-0.5,0.225-0.5,0.5v3.184c0,0.277,0.224,0.5,0.5,0.5h8.598c0.142,0,0.277-0.059,0.373-0.164  l2.863-3.186c0.131-0.146,0.165-0.357,0.084-0.537C18.082,72.697,17.903,72.582,17.706,72.582z M14.62,75.766H6.745v-2.184h9.839  L14.62,75.766z"/></svg>
