<svg xmlns="http://www.w3.org/2000/svg" data-name="Layer 1" viewBox="0 0 100 100" x="0px" y="0px"><path d="M88.55717,77.79721H73.896V62.887H88.55717a3.9031,3.9031,0,1,0,0-7.8062H73.896V50.03612a4.35137,4.35137,0,0,0-8.70273,0v1.5212c-16.75137.5487-22.088,4.49228-23.78007,10.08209H32.72394a4.78087,4.78087,0,0,0-4.7778,4.7125c-3.97084-.72393-8.0616-2.25624-10.21871-4.39752-5.79486-5.75264-3.29122-9.255,4.80106-18.535,7.32238-8.39769,16.436-18.84877,15.8875-35.0186a3.51959,3.51959,0,1,0-7.03514.23863c.45418,13.39613-7.30863,22.29907-14.15769,30.1537-7.13727,8.18508-15.2271,17.46266-4.4549,28.15678,3.64879,3.62259,9.7118,5.73606,15.17057,6.5369v.7729a4.78509,4.78509,0,0,0,4.78511,4.785h8.68928c1.69207,5.5898,7.0287,9.53338,23.78007,10.08208V90.6487a4.35137,4.35137,0,0,0,8.70273,0V85.60336H88.55717a3.90308,3.90308,0,1,0,0-7.80615Z"/></svg>
