<svg xmlns="http://www.w3.org/2000/svg" viewBox="0 0 32 32" x="0px" y="0px"><title>Privacy, security, unlock, unlocked</title><g data-name="01"><path d="M25,30H7a1,1,0,0,1-1-1V14a1,1,0,0,1,1-1H25a1,1,0,0,1,1,1V29A1,1,0,0,1,25,30ZM8,28H24V15H8Z"/><path d="M22,15H10a1,1,0,0,1-1-1V9A7,7,0,0,1,23,9v5A1,1,0,0,1,22,15ZM11,13H21V9A5,5,0,0,0,11,9Z"/><path d="M16,26a1,1,0,0,1-1-1V22a1,1,0,0,1,2,0v3A1,1,0,0,1,16,26Z"/><path d="M16,23a3,3,0,1,1,3-3A3,3,0,0,1,16,23Zm0-4a1,1,0,1,0,1,1A1,1,0,0,0,16,19Z"/></g></svg>
