<svg xmlns="http://www.w3.org/2000/svg" xmlns:xlink="http://www.w3.org/1999/xlink" version="1.1" x="0px" y="0px" viewBox="0 0 100 100" enable-background="new 0 0 100 100" xml:space="preserve"><path d="M96.138,38.915c-0.42-0.857-1.291-1.401-2.245-1.401h-8.938c-1.381,0-2.5,1.119-2.5,2.5v5.296h-3.557v-5.308  c0-1.376-1.112-2.494-2.488-2.5l-5.509-0.026l-3.435-7.789c-0.399-0.906-1.297-1.491-2.287-1.491H51.754v-6.403h7.056  c1.381,0,2.5-1.119,2.5-2.5s-1.119-2.5-2.5-2.5H29.145c-1.381,0-2.5,1.119-2.5,2.5s1.119,2.5,2.5,2.5h8.624v6.403H26.008  c-0.902,0-1.734,0.486-2.177,1.271l-2.515,4.457h-1.713c-4.531,0-8.217,3.686-8.217,8.217v5.451H5.614  c-0.213,0-0.416,0.035-0.614,0.085V34.261c0-1.381-1.119-2.5-2.5-2.5S0,32.88,0,34.261v30.805c0,1.381,1.119,2.5,2.5,2.5  s2.5-1.119,2.5-2.5v-12.56c0.197,0.05,0.401,0.085,0.614,0.085h5.771V64.71c0,4.59,3.734,8.323,8.324,8.323h8.021l9.441,9.44  c0.469,0.469,1.104,0.732,1.768,0.732h37.46c1.381,0,2.5-1.119,2.5-2.5v-7.201l3.557-0.007v4.721c0,1.379,1.116,2.498,2.496,2.5  l9.128,0.016c0.001,0,0.003,0,0.004,0c0.95,0,1.818-0.539,2.24-1.39c0.15-0.304,3.677-7.57,3.677-20.557  C100,46.939,96.296,39.236,96.138,38.915z M42.769,21.793h3.985v6.403h-3.985V21.793z M92.403,75.731l-4.948-0.009v-4.729  c0-0.664-0.264-1.301-0.733-1.77c-0.469-0.468-1.104-0.73-1.767-0.73c-0.001,0-0.003,0-0.004,0l-8.557,0.015  c-1.38,0.002-2.496,1.121-2.496,2.5v7.197H39.974l-9.441-9.44c-0.469-0.469-1.104-0.732-1.768-0.732h-9.056  c-1.833,0-3.324-1.491-3.324-3.323V42.141c0-1.774,1.443-3.217,3.217-3.217h3.173c0.902,0,1.734-0.486,2.177-1.271l2.515-4.457  H63.55l3.431,7.78c0.397,0.903,1.289,1.487,2.275,1.492l4.643,0.022v5.32c0,1.381,1.119,2.5,2.5,2.5h8.557  c1.381,0,2.5-1.119,2.5-2.5v-5.296h4.774C93.189,45.05,95,50.883,95,58.788C95,67.395,93.31,73.223,92.403,75.731z"/></svg>
