<?xml version="1.0" standalone="no"?>
<!DOCTYPE svg PUBLIC "-//W3C//DTD SVG 20010904//EN" "http://www.w3.org/TR/2001/REC-SVG-20010904/DTD/svg10.dtd">
<svg version="1.0" xmlns="http://www.w3.org/2000/svg"
 width="2362.000000pt" height="2362.000000pt" viewBox="0 0 2362.000000 2362.000000"
 preserveAspectRatio="xMidYMid meet">
<metadata>
Created by potrace 1.15, written by Peter Selinger 2001-2017
</metadata>
<g transform="translate(0.000000,2362.000000) scale(0.100000,-0.100000)"
fill="#000000" stroke="none">
<path d="M11235 23609 c-1360 -72 -2623 -350 -3864 -851 -1777 -717 -3395
-1899 -4632 -3384 -704 -845 -1293 -1789 -1726 -2769 -536 -1209 -861 -2480
-973 -3795 -29 -351 -35 -526 -34 -1070 1 -447 12 -746 38 -990 2 -19 9 -87
16 -150 209 -2056 957 -4023 2165 -5695 1759 -2434 4361 -4107 7285 -4685 255
-50 628 -110 850 -135 30 -4 66 -8 80 -10 38 -6 314 -33 405 -40 44 -3 107 -8
140 -11 407 -33 1235 -33 1650 1 33 2 96 7 140 10 44 3 94 8 110 10 17 2 66 7
110 10 276 23 911 120 1240 190 1501 320 2878 899 4133 1737 1175 785 2217
1793 3043 2943 1063 1478 1768 3183 2058 4975 38 234 83 576 96 725 3 39 8 86
10 105 2 19 6 71 10 115 3 44 8 107 10 140 34 415 34 1243 1 1650 -3 33 -8 96
-11 140 -161 2105 -936 4206 -2192 5943 -57 78 -103 145 -103 150 0 4 124 131
275 282 172 172 278 271 284 265 22 -24 287 -394 383 -535 212 -311 469 -732
632 -1033 l48 -87 221 2 222 3 3 2788 2 2787 -2794 0 -2795 0 -1 -215 -1 -215
43 -25 c24 -14 131 -75 238 -136 352 -200 713 -431 1065 -682 116 -83 230
-166 255 -186 25 -19 47 -37 50 -39 6 -4 -543 -552 -554 -552 -4 0 -56 35
-115 78 -1183 869 -2604 1535 -4046 1896 -613 153 -1121 240 -1832 311 -352
36 -1259 55 -1638 34z m1020 -2919 c105 -5 219 -12 255 -15 98 -8 371 -36 400
-40 14 -2 79 -11 145 -20 397 -54 839 -149 1255 -270 1258 -367 2419 -1012
3425 -1904 174 -154 562 -542 716 -717 807 -913 1404 -1939 1786 -3069 63
-186 185 -597 198 -669 l7 -36 -8631 0 c-4747 0 -8631 3 -8631 8 0 4 22 88 49
187 289 1055 756 2024 1403 2912 454 621 1022 1214 1629 1699 1224 979 2664
1610 4204 1843 301 46 489 65 850 90 177 12 734 13 940 1z m6766 -7755 c289
-35 592 -143 787 -282 352 -250 510 -650 425 -1073 -42 -212 -139 -386 -299
-540 -166 -159 -397 -277 -664 -340 -200 -46 -345 -59 -620 -55 -140 2 -271 6
-290 9 -19 4 -66 11 -105 17 -240 37 -476 124 -655 244 -248 165 -401 387
-460 669 -29 137 -22 366 14 496 63 224 190 406 386 554 199 150 462 250 780
297 165 24 518 26 701 4z m-9740 -9 c275 -45 508 -132 699 -259 101 -67 254
-224 314 -319 155 -250 195 -561 110 -857 -114 -397 -466 -686 -970 -796 -186
-40 -311 -52 -549 -53 -560 -1 -969 130 -1254 403 -171 164 -271 355 -306 585
-53 345 48 662 286 900 212 212 526 350 924 404 138 19 613 14 746 -8z m-3801
-186 l0 -170 -269 0 -270 0 52 -92 c28 -51 67 -123 86 -159 210 -388 607
-1108 611 -1109 3 0 49 82 102 183 95 177 369 685 548 1015 l88 162 -219 0
-219 0 0 170 0 170 760 0 760 0 0 -170 0 -170 -256 -2 -256 -3 -294 -545
c-163 -300 -376 -696 -476 -880 -99 -184 -194 -359 -210 -387 l-29 -53 -592 0
-592 0 -515 935 -514 935 -253 0 -253 0 0 170 0 170 1105 0 1105 0 0 -170z
m7140 0 l0 -170 -255 0 -255 0 2 -762 3 -763 300 1 c338 1 387 8 533 81 89 44
212 155 260 236 39 65 78 173 87 243 3 27 8 64 11 82 l5 32 164 0 165 0 0
-505 0 -505 -1517 -2 c-835 -2 -1524 -1 -1530 1 -10 2 -13 44 -13 167 0 124 3
164 13 164 6 0 120 1 252 3 l240 2 3 763 2 762 -255 0 -255 0 0 170 0 170
1020 0 1020 0 0 -170z m2670 0 l0 -170 -265 0 c-146 0 -265 -3 -265 -6 0 -6
699 -1287 727 -1333 18 -28 -12 -77 261 429 99 184 250 463 335 620 l154 285
-218 3 -219 2 0 170 0 170 760 0 760 0 0 -170 0 -170 -255 -2 -256 -3 -189
-350 c-104 -192 -330 -611 -502 -930 l-314 -580 -595 -3 -594 -2 -20 37 c-11
21 -36 67 -56 103 -52 94 -224 406 -479 870 -123 223 -259 470 -303 550 -43
80 -99 182 -124 228 l-45 82 -254 0 -254 0 0 170 0 170 1105 0 1105 0 0 -170z
m5150 -3084 c0 -49 -164 -593 -257 -851 -383 -1064 -948 -2016 -1722 -2900
-147 -168 -607 -626 -783 -779 -1433 -1247 -3141 -1986 -5018 -2170 -49 -5
-201 -16 -425 -31 -92 -6 -762 -6 -845 -1 -30 3 -102 7 -160 11 -896 53 -1858
270 -2720 615 -2543 1016 -4491 3171 -5248 5805 -39 135 -82 297 -82 309 0 3
3883 6 8630 6 7270 0 8630 -2 8630 -14z"/>
<path d="M18582 12595 c-152 -43 -264 -149 -347 -327 -117 -254 -126 -633 -21
-912 100 -263 304 -401 541 -364 291 45 473 365 475 834 1 375 -145 666 -378
754 -74 29 -198 35 -270 15z"/>
<path d="M8773 12595 c-79 -22 -131 -51 -197 -114 -107 -101 -175 -233 -218
-425 -26 -112 -30 -369 -9 -486 53 -295 188 -495 379 -561 67 -24 193 -28 262
-9 265 71 431 385 432 820 1 359 -124 634 -336 742 -93 48 -212 60 -313 33z"/>
</g>
</svg>
