<svg xmlns="http://www.w3.org/2000/svg" viewBox="0 0 32 32" x="0px" y="0px"><title>Maps, position, tag</title><g data-name="18"><path d="M16,24h0a1,1,0,0,1-.839-.456L9.729,15.171a7.013,7.013,0,0,1-.407-.63,7.705,7.705,0,1,1,13.417-.105.94.94,0,0,1-.068.124l-.072.112c-.092.154-.205.332-.328.5l-5.432,8.37A1,1,0,0,1,16,24ZM16,5a5.7,5.7,0,0,0-4.957,8.523c.112.193.22.358.335.518L16,21.163l4.619-7.116c.116-.164.2-.295.28-.43l.043-.067.015-.027A5.7,5.7,0,0,0,16,5Z"/><path d="M26,28H6a1,1,0,0,1-.949-1.316l3-9a1,1,0,0,1,1.9.632L7.387,26H24.612l-2.56-7.684a1,1,0,0,1,1.9-.632l3,9A1,1,0,0,1,26,28Z"/><path d="M16,15a4,4,0,1,1,4-4A4,4,0,0,1,16,15Zm0-6a2,2,0,1,0,2,2A2,2,0,0,0,16,9Z"/></g></svg>
