<svg xmlns="http://www.w3.org/2000/svg" version="1.1" viewBox="-5.0 -10.0 110.0 110.0">
 <path d="m5.0234 51.816h14.184c0.37109-2.5039 1.043-4.9141 1.9766-7.1914l0.046875-0.10938 0.007812-0.015625c0.95703-2.3086 2.2031-4.5234 3.7383-6.5938l-10.035-10.035c-2.7578 3.3789-5.0312 7.1641-6.7227 11.246-1.6875 4.082-2.7539 8.3633-3.1914 12.699zm9.918 33.152 10.035-10.035c-1.5352-2.0703-2.7812-4.2891-3.7383-6.5938l-0.003906-0.011719-0.003906-0.007813-0.046875-0.10937c-0.93359-2.2773-1.6055-4.6875-1.9766-7.1914h-14.184c0.44141 4.3398 1.5078 8.6211 3.1953 12.707 1.6914 4.082 3.9688 7.8633 6.7227 11.238zm30.457-59.34c-2.5 0.37109-4.9062 1.0391-7.1797 1.9727l-0.011719 0.003907-0.10938 0.046875-0.015625 0.007812c-2.3086 0.95703-4.5234 2.2031-6.5938 3.7383l-10.035-10.035c3.3789-2.7539 7.1562-5.0273 11.234-6.7188 4.0859-1.6914 8.3711-2.7578 12.711-3.1953v14.184zm23.117 5.7656 10.035-10.035c-3.3789-2.7539-7.1562-5.0273-11.238-6.7188-4.0859-1.6914-8.3711-2.7578-12.711-3.1953v14.184c2.5039 0.37109 4.9141 1.043 7.1914 1.9766l0.10938 0.046875 0.003906 0.003906 0.011719 0.003906c2.3086 0.95703 4.5234 2.2031 6.5938 3.7383zm12.273 20.422c-0.37891-2.5469-1.0664-4.9922-2.0195-7.3008l-0.007812-0.015625-0.046875-0.10938c-0.94922-2.2695-2.1797-4.4492-3.6914-6.4883l10.035-10.035c2.7539 3.3789 5.0273 7.1562 6.7188 11.234 1.6914 4.0859 2.7578 8.3711 3.1992 12.711h-14.184zm0.54297 9.207 3.2773 1.0312c2.082 0.65234 3.3164 1.7969 3.7656 2.9336 0.21875 0.55859 0.26172 1.125 0.13281 1.6602-0.13281 0.54297-0.4375 1.0312-0.90625 1.4141-0.88672 0.73047-2.4062 1.0859-4.4453 0.65625l-4.1914-0.88672c-0.066406 0.16797-0.13281 0.33594-0.20312 0.5v0.003907l-0.007813 0.011718-0.023437 0.058594-0.003907 0.011719c-0.44141 1.0586-0.94141 2.0938-1.5039 3.1016-0.64844 1.1719-1.3867 2.3125-2.2031 3.4141l10.035 10.035c2.7539-3.3789 5.0273-7.1562 6.7188-11.234 1.6914-4.0859 2.7578-8.3711 3.1992-12.711zm-26.023-9.3242c-1.3594-1.3594-3.2383-2.1992-5.3125-2.1992-2.0742 0-3.9531 0.83984-5.3125 2.1992s-2.1992 3.2383-2.1992 5.3125 0.83984 3.9531 2.1992 5.3125 3.2383 2.1992 5.3125 2.1992c2.0742 0 3.9531-0.83984 5.3125-2.1992s2.1992-3.2383 2.1992-5.3125-0.83984-3.9531-2.1992-5.3125zm4.3516 4.7812 19.582 6.1484c0.019531 0.007813 0.039062 0.011719 0.058593 0.019532l4.668 1.4648c1.3906 0.4375 2.1641 1.0703 2.3945 1.6562 0.054688 0.14062 0.070313 0.26562 0.046875 0.36719-0.023437 0.089843-0.082031 0.17969-0.17969 0.25781-0.42578 0.35156-1.3008 0.48828-2.6289 0.20703l-24.941-5.2812c0.64844-1.3008 1.0117-2.7656 1.0117-4.3125 0-0.17969-0.003906-0.35547-0.015625-0.52734zm-20.742 24.168h-1.3789c-0.54297 0-1.0391 0.22266-1.3984 0.58203s-0.58203 0.85547-0.58203 1.3984v3.9492c0 0.54297 0.22266 1.0391 0.58203 1.3984 0.35938 0.35938 0.85547 0.58203 1.3984 0.58203h1.3789zm6.668 0h-4.5039v7.9102h4.5039zm6.668 0h-4.5039v7.9102h4.5039zm6.668 0h-4.5039v7.9102h4.5039zm3.5391 0h-1.3789v7.9102h1.3789c0.54297 0 1.0391-0.22266 1.3984-0.58203 0.35938-0.35937 0.58203-0.85547 0.58203-1.3984v-3.9492c0-0.54297-0.22266-1.0391-0.58203-1.3984s-0.85547-0.58203-1.3984-0.58203z" fill-rule="evenodd"/></svg>